<?xml version="1.0" encoding="UTF-8" standalone="no"?>
<svg
   xmlns:dc="http://purl.org/dc/elements/1.1/"
   xmlns:cc="http://creativecommons.org/ns#"
   xmlns:rdf="http://www.w3.org/1999/02/22-rdf-syntax-ns#"
   xmlns:svg="http://www.w3.org/2000/svg"
   xmlns="http://www.w3.org/2000/svg"
   xmlns:sodipodi="http://sodipodi.sourceforge.net/DTD/sodipodi-0.dtd"
   xmlns:inkscape="http://www.inkscape.org/namespaces/inkscape"
   version="1.1"
   width="29.435886mm"
   height="25.800001mm"
   id="svg3069"
   sodipodi:docname="ISO_7010_W001-!.svg"
   inkscape:version="1.0 (4035a4fb49, 2020-05-01)">
  <sodipodi:namedview
     units="mm"
     fit-margin-bottom="0.4"
     fit-margin-right="0.4"
     fit-margin-left="0.4"
     fit-margin-top="0.4"
     lock-margins="true"
     inkscape:document-rotation="0"
     pagecolor="#ffffff"
     bordercolor="#666666"
     borderopacity="1"
     objecttolerance="10"
     gridtolerance="10"
     guidetolerance="10"
     inkscape:pageopacity="0"
     inkscape:pageshadow="2"
     inkscape:window-width="1920"
     inkscape:window-height="1017"
     id="namedview2048"
     showgrid="false"
     inkscape:zoom="6.188893"
     inkscape:cx="53.12517"
     inkscape:cy="51.074908"
     inkscape:window-x="1912"
     inkscape:window-y="-8"
     inkscape:window-maximized="1"
     inkscape:current-layer="svg3069" />
  <metadata
     id="metadata3085">
    <rdf:RDF>
      <cc:Work
         rdf:about="">
        <dc:format>image/svg+xml</dc:format>
        <dc:type
           rdf:resource="http://purl.org/dc/dcmitype/StillImage" />
        <dc:title></dc:title>
      </cc:Work>
    </rdf:RDF>
  </metadata>
  <defs
     id="defs3073">
    <path
       d="M 2.8117,-1.046 A 3,3 0 0 1 0.5,2.958 V 4.5119 A 10.5,10.5 0 0 1 2,25.3078 v 0.5583 A 15,15 0 0 0 14.7975,8.5433 15,15 0 0 0 23.4007,-11.201 l -0.4835,0.2792 A 10.5,10.5 0 0 1 4.1574,-1.8229 Z m 3.4148,8.871 a 10,10 0 0 1 -12.453,0 9.5,9.5 0 0 0 -2.1756,2.7417 13.5,13.5 0 0 0 16.8042,0 A 10,10 0 0 0 6.2265,7.825 Z"
       transform="matrix(10,0,0,-10,260,260)"
       id="p" />
  </defs>
  <g
     style="stroke-width:5.54143"
     transform="matrix(0.18045873,0,0,0.18045873,1.5072996,1.511811)"
     id="g840">
    <g
       style="stroke-width:5.54143"
       id="g838">
      <path
         style="stroke-width:5.54143"
         d="M 597.6,499.6 313.8,8 C 310.9,3 305.6,0 299.9,0 294.2,0 288.9,3.1 286,8 L 2.2,499.6 c -2.9,5 -2.9,11.1 0,16 2.9,5 8.2,8 13.9,8 h 567.6 c 5.7,0 11,-3.1 13.9,-8 2.9,-5 2.9,-11.1 0,-16 z"
         id="sign_border" />
      <polygon
         points="43.875,491.5 299.875,48.2 555.875,491.5 "
         transform="matrix(1,0,0,0.99591458,0.125,2.0332437)"
         id="polygon7"
         style="overflow:visible;fill:#ffe100;fill-opacity:1;stroke:none;stroke-width:5.54143" />
      <path
         d="m -384.00937,417.52725 a 38.151581,36.156727 0 1 1 -76.30316,0 38.151581,36.156727 0 1 1 76.30316,0 z"
         transform="matrix(0.99319888,0,0,1.0479962,719.28979,-2.9357862)"
         id="path1995"
         style="fill:#000000;fill-opacity:1;stroke:none;stroke-width:3.46422;stroke-linecap:square;stroke-miterlimit:4;stroke-dasharray:none;stroke-dashoffset:0;stroke-opacity:0.4" />
      <path
         d="m 300,168.60074 c -20.64745,0 -37.26716,16.97292 -37.26716,38.05658 l 11.01897,133.31318 c 2.10449,17.24457 3.90184,27.0149 11.01898,31.60966 4.64712,2.1172 9.79468,3.32214 15.22921,3.32214 5.40832,0 10.53383,-1.1913 15.16343,-3.28925 7.15697,-4.58178 8.97556,-14.35941 11.08476,-31.64255 l 11.01898,-133.31318 c 0,-21.08366 -16.61973,-38.05658 -37.26717,-38.05658 z"
         id="rect1997"
         style="fill:#000000;fill-opacity:1;stroke:none;stroke-width:4.90875;stroke-linecap:square;stroke-miterlimit:4;stroke-dashoffset:0;stroke-opacity:1" />
    </g>
  </g>
</svg>
