<?xml version="1.0" encoding="UTF-8" standalone="no"?>
<!-- Created with Inkscape (http://www.inkscape.org/) -->

<svg
   version="1.1"
   id="svg419"
   width="1080"
   height="1080"
   viewBox="0 0 1080 1080"
   sodipodi:docname="logo-svg.png.svg"
   inkscape:version="1.1.2 (0a00cf5339, 2022-02-04)"
   xmlns:inkscape="http://www.inkscape.org/namespaces/inkscape"
   xmlns:sodipodi="http://sodipodi.sourceforge.net/DTD/sodipodi-0.dtd"
   xmlns="http://www.w3.org/2000/svg"
   xmlns:svg="http://www.w3.org/2000/svg">
  <defs
     id="defs423" />
  <sodipodi:namedview
     id="namedview421"
     pagecolor="#505050"
     bordercolor="#eeeeee"
     borderopacity="1"
     inkscape:pageshadow="0"
     inkscape:pageopacity="0"
     inkscape:pagecheckerboard="0"
     showgrid="false"
     inkscape:zoom="0.74722222"
     inkscape:cx="451.00372"
     inkscape:cy="647.0632"
     inkscape:window-width="1850"
     inkscape:window-height="1016"
     inkscape:window-x="70"
     inkscape:window-y="27"
     inkscape:window-maximized="1"
     inkscape:current-layer="g425" />
  <g
     inkscape:groupmode="layer"
     inkscape:label="Image"
     id="g425">
    <path
       style="fill:#000000"
       d="M 527.5,1066.2765 C 351.60309,1062.9999 186.93884,973.00868 89.344089,826.8185 6.1307519,702.17067 -20.332868,548.68595 16.416241,403.84875 50.00535,271.46589 132.02286,158.92659 249.5,84.025799 368.87569,7.9145369 517.09101,-17.814756 658,13.112644 709.53027,24.422761 761.35238,44.10294 806,69.317732 875.35406,108.48551 935.2804,162.11164 981.08993,226 c 103.67747,144.59408 127.39117,333.49519 62.64197,499 -12.69,32.4366 -30.4976,67.20515 -49.16907,96 C 948.34038,892.28366 883.36961,953.54161 809.52237,995.46611 723.61061,1044.2399 628.36067,1068.1553 527.5,1066.2765 Z m 38,-37.3071 c 57.21948,-3.154 109.62804,-14.4224 160.94629,-34.60502 C 742.92548,987.88337 777.81517,971.05831 793.5,962.02867 839.83095,935.35629 883.61961,899.52289 919.40177,859 1052.4745,708.29656 1080.6739,493.16995 990.87612,313.73861 948.06019,228.18507 882.69942,158.11968 798.5,107.5154 784.18923,98.914556 751.979,82.818239 735.5,76.032605 636.8187,35.39816 529.97526,26.395024 426.15206,49.965478 366.57834,63.490197 309.0875,88.324162 257.50888,122.81323 102.52057,226.44924 18.604114,407.74754 40.570641,591.5 57.635101,734.24612 136.73358,862.89727 257,943.51546 c 76.05948,50.98495 164.13108,80.44964 255.30178,85.41214 20.92906,1.1392 33.11639,1.1488 53.19822,0.042 z m -38.29137,-92.49453 c -7.97196,-1.73107 -15.30314,-5.11637 -21.82941,-10.08011 -7.5817,-5.76647 -376.51432,-358.67461 -379.03005,-362.56697 -13.14533,-20.33866 -12.1989,-45.66792 2.37751,-63.62853 4.60255,-5.67113 370.04046,-354.55099 376.66057,-359.59402 20.15837,-15.35613 48.96967,-15.26796 69.4682,0.21258 3.80471,2.87333 93.10313,87.50943 140.41883,133.08749 7.77429,7.48878 7.77429,7.48878 14,1.40561 10.65231,-10.40841 21.35084,-16.66065 36.72572,-21.46258 6.61439,-2.06583 9.3893,-2.3334 23.5,-2.26598 14.62905,0.0699 16.72832,0.31284 24.5,2.83526 28.3542,9.20278 48.9707,29.84559 58.00834,58.08238 3.0143,9.41775 3.88972,31.6411 1.66012,42.14371 -3.12411,14.71622 -11.36376,30.77082 -21.17644,41.26137 -4.45908,4.76712 -4.45908,4.76712 45.48002,52.4585 27.4665,26.23026 51.53012,49.63301 53.4747,52.00612 13.73156,16.75756 15.08387,41.81772 3.31492,61.42998 -2.47093,4.11766 -48.32641,48.49931 -189.14719,183.06785 -102.23705,97.69786 -188.07912,179.28945 -190.76016,181.31465 -13.47998,10.18249 -30.86134,13.93731 -47.64568,10.29269 z m 22.23176,-38.01361 c 4.34869,-2.06359 372.55744,-353.43797 374.80806,-357.67197 1.98163,-3.72797 2.25355,-9.0508 0.69131,-13.53225 -0.70421,-2.0201 -18.25319,-19.47139 -52.25965,-51.96875 -28.15967,-26.91003 -52.81807,-50.34854 -54.79644,-52.08557 -3.59703,-3.15823 -3.59703,-3.15823 -10.49035,-1.69784 -10.17435,2.1555 -28.08308,1.91508 -38.21121,-0.51297 -30.16175,-7.23079 -53.79728,-29.63259 -62.76829,-59.49191 -2.3223,-7.7296 -2.7188,-10.9056 -2.8089,-22.5 -0.0577,-7.425 0.26363,-15.78126 0.71409,-18.56947 0.81901,-5.06946 0.81901,-5.06946 -75.46963,-77.89722 -50.48717,-48.19679 -77.65174,-73.44695 -80.31901,-74.65857 -5.14441,-2.33687 -11.91907,-2.33562 -17.06781,0.003 -5.69386,2.5864 -374.90178,355.07468 -376.39069,359.34578 -1.57321,4.5129 -1.30692,9.82812 0.67968,13.56679 1.56228,2.94011 364.41392,350.18603 371.74845,355.76008 5.97443,4.54042 14.78227,5.30746 21.94039,1.91071 z M 525.5,695.42309 c -1.65,-0.23007 -6.375,-0.91434 -10.5,-1.5206 -62.83139,-9.23452 -115.98061,-57.19637 -131.96439,-119.08465 -4.5041,-17.4396 -5.33846,-25.63194 -4.746,-46.59938 0.67155,-23.76645 3.94697,-39.13741 12.63318,-59.28525 22.31079,-51.75035 70.45363,-88.4963 126.35573,-96.44346 50.74724,-7.21434 100.99754,9.74597 137.74165,46.49008 24.85819,24.85819 40.56368,56.24014 45.89829,91.71172 1.53941,10.2361 1.3165,37.16202 -0.39405,47.59744 -5.69228,34.72644 -21.34376,65.59424 -45.4981,89.73118 -24.21329,24.19585 -52.42587,38.8811 -87.52631,45.55931 -7.71423,1.4677 -35.84124,2.70235 -42,1.84361 z"
       id="path2445" />
  </g>
</svg>